# Blender v2.69 (sub 0) OBJ File: 'bug.blend'
# www.blender.org
mtllib bugObject.mtl
o Sphere
v 0.309017 0.951057 0.000000
v 0.587785 0.809017 0.000000
v 0.809017 0.587785 0.000000
v 1.000000 -0.000000 0.000000
v 0.951056 -0.309017 0.000000
v 0.809017 -0.587785 0.000000
v 0.587785 -0.809017 0.000000
v 0.309017 -0.951057 0.000000
v 0.154508 0.951057 0.267617
v 0.293892 0.809017 0.509037
v 0.404508 0.587785 0.700630
v 0.475528 0.309017 0.823639
v 0.500000 -0.000000 0.866026
v 0.475528 -0.309017 0.823639
v 0.404508 -0.587785 0.700630
v 0.293892 -0.809017 0.509037
v 0.154508 -0.951057 0.267617
v -0.154509 0.951057 0.267617
v -0.293893 0.809017 0.509037
v -0.404509 0.587785 0.700630
v -0.475529 0.309017 0.823639
v -0.500000 -0.000000 0.866026
v -0.475529 -0.309017 0.823639
v -0.404509 -0.587785 0.700630
v -0.293893 -0.809017 0.509037
v -0.154509 -0.951057 0.267617
v -0.309018 0.951057 0.000000
v -0.587786 0.809017 0.000000
v -0.809018 0.587785 0.000000
v -0.951057 0.309017 0.000000
v -1.000001 -0.000000 0.000000
v -0.951057 -0.309017 0.000000
v -0.809018 -0.587785 0.000000
v -0.587786 -0.809017 0.000000
v -0.309017 -0.951057 -0.000000
v -0.000000 -1.000000 0.000000
v -0.154509 0.951057 -0.267617
v -0.293893 0.809017 -0.509037
v -0.404509 0.587785 -0.700629
v -0.475529 0.309017 -0.823639
v -0.500001 -0.000000 -0.866026
v -0.475529 -0.309017 -0.823639
v -0.404509 -0.587785 -0.700629
v -0.293893 -0.809017 -0.509037
v -0.154509 -0.951057 -0.267617
v -0.000000 1.000000 -0.000000
v 0.154508 0.951057 -0.267617
v 0.293892 0.809017 -0.509037
v 0.404508 0.587785 -0.700629
v 0.475528 0.309017 -0.823639
v 0.500000 -0.000000 -0.866026
v 0.475528 -0.309017 -0.823639
v 0.404508 -0.587785 -0.700629
v 0.293892 -0.809017 -0.509037
v 0.154508 -0.951057 -0.267617
v 0.951056 0.309017 -0.000000
vn 0.439155 -0.861891 0.253546
vn 0.654654 -0.654654 0.377964
vn 0.792317 -0.403706 0.457444
vn 0.857992 -0.135893 0.495362
vn 0.654654 0.654654 0.377964
vn 0.439155 0.861891 0.253547
vn 0.000000 -0.861891 0.507093
vn 0.000000 -0.654653 0.755929
vn 0.000000 -0.403706 0.914889
vn 0.000000 -0.135893 0.990724
vn 0.000000 0.135892 0.990724
vn 0.000000 0.403706 0.914889
vn 0.000000 0.654654 0.755929
vn 0.000000 0.861891 0.507093
vn -0.439155 -0.861891 0.253546
vn -0.654654 -0.654653 0.377965
vn -0.792317 -0.403706 0.457445
vn -0.857992 -0.135893 0.495362
vn -0.857992 0.135893 0.495362
vn -0.792317 0.403706 0.457444
vn -0.654654 0.654654 0.377964
vn -0.439156 0.861891 0.253547
vn -0.439155 -0.861891 -0.253546
vn -0.654654 -0.654653 -0.377964
vn -0.792317 -0.403706 -0.457445
vn -0.857992 -0.135892 -0.495362
vn -0.857992 0.135893 -0.495362
vn -0.792317 0.403706 -0.457444
vn -0.654654 0.654654 -0.377964
vn -0.439156 0.861891 -0.253547
vn 0.000000 -0.861891 -0.507093
vn 0.000000 -0.654653 -0.755929
vn 0.000000 -0.403706 -0.914889
vn 0.000000 -0.135893 -0.990724
vn -0.000000 0.135893 -0.990724
vn 0.000000 0.403706 -0.914889
vn 0.000000 0.654653 -0.755929
vn 0.000000 0.861891 -0.507093
vn 0.155800 -0.983684 0.089951
vn 0.857992 0.135893 0.495362
vn 0.792317 0.403705 0.457444
vn 0.155800 0.983684 0.089951
vn 0.000000 -0.983684 0.179903
vn 0.000000 0.983685 0.179902
vn -0.155800 -0.983684 0.089951
vn -0.155800 0.983685 0.089952
vn -0.155800 -0.983684 -0.089951
vn -0.155800 0.983684 -0.089952
vn 0.000000 -0.983684 -0.179903
vn -0.000000 0.983684 -0.179903
vn 0.155800 -0.983684 -0.089951
vn 0.439155 -0.861891 -0.253547
vn 0.654654 -0.654654 -0.377965
vn 0.792317 -0.403706 -0.457445
vn 0.857992 -0.135893 -0.495362
vn 0.857992 0.135892 -0.495362
vn 0.792317 0.403706 -0.457445
vn 0.654654 0.654654 -0.377965
vn 0.439155 0.861891 -0.253546
vn 0.155800 0.983684 -0.089951
vn 0.439155 -0.861891 0.253547
vn 0.654654 -0.654653 0.377965
vn 0.654654 0.654654 0.377965
vn 0.439156 0.861891 0.253547
vn 0.000000 -0.654654 0.755929
vn 0.000000 0.135893 0.990724
vn 0.000000 0.654653 0.755929
vn -0.792317 -0.403706 0.457444
vn -0.857992 -0.135892 0.495362
vn -0.857992 0.135892 0.495362
vn -0.792317 0.403706 0.457445
vn -0.654654 0.654653 0.377965
vn -0.439156 0.861891 0.253546
vn -0.654654 -0.654654 -0.377965
vn -0.792317 -0.403706 -0.457444
vn -0.857992 -0.135893 -0.495362
vn -0.857992 0.135892 -0.495362
vn -0.792317 0.403705 -0.457444
vn -0.654654 0.654654 -0.377965
vn -0.439155 0.861891 -0.253546
vn 0.000000 -0.654654 -0.755929
vn 0.000000 0.135892 -0.990724
vn 0.000000 0.654654 -0.755929
vn 0.857992 0.135892 0.495362
vn 0.792317 0.403706 0.457444
vn 0.439155 -0.861891 -0.253546
vn 0.792317 -0.403706 -0.457444
vn 0.857992 -0.135892 -0.495362
vn 0.654654 0.654654 -0.377964
vn 0.439156 0.861891 -0.253547
usemtl None
s off
f 8//1 7//1 17//1
f 7//2 6//2 16//2
f 6//3 5//3 15//3
f 5//4 4//4 14//4
f 3//5 2//5 11//5
f 2//6 1//6 10//6
f 17//7 16//7 26//7
f 16//8 15//8 25//8
f 15//9 14//9 24//9
f 14//10 13//10 23//10
f 13//11 12//11 22//11
f 12//12 11//12 21//12
f 11//13 10//13 20//13
f 10//14 9//14 19//14
f 26//15 25//15 35//15
f 25//16 24//16 34//16
f 24//17 23//17 33//17
f 23//18 22//18 32//18
f 22//19 21//19 31//19
f 21//20 20//20 30//20
f 20//21 19//21 29//21
f 19//22 18//22 28//22
f 35//23 34//23 45//23
f 34//24 33//24 44//24
f 33//25 32//25 43//25
f 32//26 31//26 42//26
f 31//27 30//27 41//27
f 30//28 29//28 40//28
f 29//29 28//29 39//29
f 28//30 27//30 38//30
f 45//31 44//31 55//31
f 44//32 43//32 54//32
f 43//33 42//33 53//33
f 42//34 41//34 52//34
f 41//35 40//35 51//35
f 40//36 39//36 50//36
f 39//37 38//37 49//37
f 38//38 37//38 48//38
f 36//39 8//39 17//39
f 4//40 56//40 13//40
f 56//41 3//41 12//41
f 1//42 46//42 9//42
f 36//43 17//43 26//43
f 9//44 46//44 18//44
f 36//45 26//45 35//45
f 18//46 46//46 27//46
f 36//47 35//47 45//47
f 27//48 46//48 37//48
f 36//49 45//49 55//49
f 37//50 46//50 47//50
f 36//51 55//51 8//51
f 55//52 54//52 8//52
f 54//53 53//53 7//53
f 53//54 52//54 6//54
f 52//55 51//55 5//55
f 51//56 50//56 4//56
f 50//57 49//57 56//57
f 49//58 48//58 3//58
f 48//59 47//59 2//59
f 47//60 46//60 1//60
f 7//61 16//61 17//61
f 6//62 15//62 16//62
f 5//3 14//3 15//3
f 4//4 13//4 14//4
f 2//63 10//63 11//63
f 1//64 9//64 10//64
f 16//7 25//7 26//7
f 15//65 24//65 25//65
f 14//9 23//9 24//9
f 13//10 22//10 23//10
f 12//66 21//66 22//66
f 11//12 20//12 21//12
f 10//67 19//67 20//67
f 9//14 18//14 19//14
f 25//15 34//15 35//15
f 24//16 33//16 34//16
f 23//68 32//68 33//68
f 22//69 31//69 32//69
f 21//70 30//70 31//70
f 20//71 29//71 30//71
f 19//72 28//72 29//72
f 18//73 27//73 28//73
f 34//23 44//23 45//23
f 33//74 43//74 44//74
f 32//75 42//75 43//75
f 31//76 41//76 42//76
f 30//77 40//77 41//77
f 29//78 39//78 40//78
f 28//79 38//79 39//79
f 27//80 37//80 38//80
f 44//31 54//31 55//31
f 43//81 53//81 54//81
f 42//33 52//33 53//33
f 41//34 51//34 52//34
f 40//82 50//82 51//82
f 39//36 49//36 50//36
f 38//83 48//83 49//83
f 37//38 47//38 48//38
f 56//84 12//84 13//84
f 3//85 11//85 12//85
f 54//86 7//86 8//86
f 53//53 6//53 7//53
f 52//87 5//87 6//87
f 51//88 4//88 5//88
f 50//56 56//56 4//56
f 49//57 3//57 56//57
f 48//89 2//89 3//89
f 47//90 1//90 2//90
