# Blender v2.69 (sub 0) OBJ File: 'stripe.blend'
# www.blender.org
mtllib stripe.mtl
o Grid
v -21.957096 0.000000 -0.997857
v -19.645824 0.000000 -0.997857
v -17.334549 0.000000 -0.997857
v -15.023278 0.000000 -0.997857
v -12.712004 0.000000 -0.997857
v -10.400729 0.000000 -0.997857
v -8.089457 0.000000 -0.997857
v -5.778183 0.000000 -0.997857
v -3.466909 0.000000 -0.997857
v -1.155636 0.000000 -0.997857
v 1.155637 0.000000 -0.997857
v 3.466910 0.000000 -0.997857
v 5.778183 0.000000 -0.997857
v 8.089457 0.000000 -0.997857
v 10.400729 0.000000 -0.997857
v 12.712004 0.000000 -0.997857
v 15.023278 0.000000 -0.997857
v 17.334549 0.000000 -0.997857
v 19.645824 0.000000 -0.997857
v 21.957096 0.000000 -0.997857
v -21.957096 0.000000 1.002381
v -19.645824 0.000000 1.002381
v -17.334549 0.000000 1.002381
v -15.023278 0.000000 1.002381
v -12.712004 0.000000 1.002381
v -10.400729 0.000000 1.002381
v -8.089457 0.000000 1.002381
v -5.778183 0.000000 1.002381
v -3.466909 0.000000 1.002381
v -1.155636 0.000000 1.002381
v 1.155637 0.000000 1.002381
v 3.466910 0.000000 1.002381
v 5.778183 0.000000 1.002381
v 8.089457 0.000000 1.002381
v 10.400729 0.000000 1.002381
v 12.712004 0.000000 1.002381
v 15.023278 0.000000 1.002381
v 17.334549 0.000000 1.002381
v 19.645824 0.000000 1.002381
v 21.957096 0.000000 1.002381
vn 0.000000 1.000000 0.000000
usemtl Material.001
s off
f 18//1 17//1 38//1
f 7//1 6//1 27//1
f 5//1 4//1 25//1
f 16//1 15//1 36//1
f 3//1 2//1 23//1
f 14//1 13//1 34//1
f 12//1 11//1 32//1
f 10//1 9//1 30//1
f 19//1 18//1 39//1
f 8//1 7//1 28//1
f 6//1 5//1 26//1
f 17//1 16//1 37//1
f 4//1 3//1 24//1
f 15//1 14//1 35//1
f 2//1 1//1 22//1
f 13//1 12//1 33//1
f 11//1 10//1 31//1
f 20//1 19//1 40//1
f 9//1 8//1 29//1
f 17//1 37//1 38//1
f 6//1 26//1 27//1
f 4//1 24//1 25//1
f 15//1 35//1 36//1
f 2//1 22//1 23//1
f 13//1 33//1 34//1
f 11//1 31//1 32//1
f 9//1 29//1 30//1
f 18//1 38//1 39//1
f 7//1 27//1 28//1
f 5//1 25//1 26//1
f 16//1 36//1 37//1
f 3//1 23//1 24//1
f 14//1 34//1 35//1
f 1//1 21//1 22//1
f 12//1 32//1 33//1
f 10//1 30//1 31//1
f 19//1 39//1 40//1
f 8//1 28//1 29//1
